<svg width="120" height="120" viewBox="0 0 120 120" fill="none" xmlns="http://www.w3.org/2000/svg">
<g id="icon">
<path id="Vector" d="M117.523 49.7464C114.821 47.8714 108.628 47.1683 103.787 48.1058C103.224 43.4183 100.634 39.3172 96.1307 35.6844L93.5413 33.8094L91.7394 36.5047C89.488 40.0203 88.3621 44.9422 88.6996 49.6297C88.8121 51.2698 89.375 54.1995 91.0639 56.7776C89.488 57.7151 86.2227 58.887 81.9444 58.887H0.541279L0.316279 59.8245C-0.472159 64.5116 -0.472159 79.1595 8.76034 90.4091C15.741 98.9633 26.0994 103.299 39.7227 103.299C69.2211 103.299 91.0639 89.1195 101.31 63.4569C105.363 63.5741 114.033 63.4569 118.424 54.6678C118.536 54.4334 118.761 53.9647 119.549 52.2073L120 51.2698L117.523 49.7464ZM65.6183 16.7009H53.2339V28.4192H65.6183V16.7009ZM65.6183 30.763H53.2339V42.4812H65.6183V30.7625V30.763ZM50.9816 30.763H38.5972V42.4812H50.9816V30.7625V30.763ZM36.3449 30.763H23.96V42.4812H36.3449V30.7625V30.763ZM21.7082 44.825H9.32331V56.5433H21.7077V44.8245L21.7082 44.825ZM36.3449 44.825H23.96V56.5433H36.3449V44.8245V44.825ZM50.9816 44.825H38.5972V56.5433H50.9816V44.8245V44.825ZM65.6188 44.825H53.2335V56.5433H65.6188V44.8245V44.825ZM80.2555 44.825H67.8702V56.5433H80.2555V44.8245V44.825Z" fill="#2396ED"/>
</g>
</svg>
