<svg width="25" height="24" viewBox="0 0 25 24" fill="none" xmlns="http://www.w3.org/2000/svg">
<g id="cib:gmail" clip-path="url(#clip0_1_2988)">
<path id="Vector" d="M24.0406 4.49746V19.2383C24.0406 20.0748 23.4031 20.7124 22.5666 20.7124H21.0925V7.33433L12.248 13.6876L3.40349 7.33433V20.7124H1.9294C1.09286 20.7124 0.455322 20.0748 0.455322 19.2383V4.49746C0.455322 4.07882 0.613049 3.7103 0.877647 3.44939C1.01545 3.31151 1.17958 3.20274 1.36026 3.12956C1.54094 3.05638 1.73449 3.02027 1.9294 3.02338H2.42101L12.248 10.1484L22.0749 3.02338H22.5666C22.9852 3.02338 23.3537 3.18111 23.6183 3.44939C23.8829 3.7103 24.0406 4.07882 24.0406 4.49746Z" fill="#1F2626"/>
</g>
<defs>
<clipPath id="clip0_1_2988">
<rect width="23.5853" height="23.5853" fill="white" transform="translate(0.455078 0.0755615)"/>
</clipPath>
</defs>
</svg>
