<svg width="119.834106" height="120.000000" viewBox="0 0 119.834 120" fill="none" xmlns="http://www.w3.org/2000/svg" xmlns:xlink="http://www.w3.org/1999/xlink">
	<desc>
			Created with Pixso.
	</desc>
	<defs>
		<linearGradient id="paint_linear_1_3285_0" x1="59.909950" y1="120.000000" x2="59.909950" y2="0.000000" gradientUnits="userSpaceOnUse">
			<stop stop-color="#FFB199"/>
			<stop offset="1.000000" stop-color="#FF0844"/>
		</linearGradient>
	</defs>
	<path id="Vector" d="M70.5857 0C69.762 0.00939941 68.9453 0.154175 68.1686 0.428589C75.0728 4.96289 66.9685 11.5457 70.74 17.1428C70.4761 15.2693 70.7733 13.3595 71.5941 11.6548C72.4148 9.94995 73.7223 8.52661 75.3514 7.56433C76.5728 6.54858 77.3528 6.18433 77.0914 4.50427C76.6799 1.75281 73.0114 0 70.5857 0ZM80.4427 1.77429C79.4913 6.58716 78.2999 6.76282 74.7728 9.86145C73.3958 10.9449 72.4236 12.4606 72.0131 14.1641C71.6025 15.8676 71.7776 17.6595 72.5099 19.2515C57.9385 13.5942 39.2614 10.1743 25.5685 19.9629C20.6443 23.4814 17.6356 28.5343 11.5629 30.5957C7.63708 31.9371 3.77991 31.5428 1.32849 35.4343C0.428833 36.558 -0.0411377 37.9653 0.00280762 39.4042C0.0467529 40.843 0.601929 42.2191 1.56848 43.2858C2.29712 44.0358 3.71143 44.5157 4.29419 45.2786C4.63281 45.7072 4.62427 46.1357 4.94568 46.7057C5.51233 48.0348 6.3335 49.2402 7.36279 50.2543C7.98853 50.7728 10.1571 51.2786 10.5256 51.8314C10.9843 52.5215 9.78418 55.26 10.7914 55.6886C11.4728 56.0015 13.4572 52.5 13.6499 52.1914C13.2556 54.9471 12.7371 59.8372 15.8357 55.7657C17.3057 53.8329 17.3956 53.1943 19.8685 52.7657C24.749 51.9298 29.7498 52.1146 34.5552 53.3085C39.3607 54.5023 43.8666 56.6792 47.7885 59.7019C51.7103 62.7245 54.9631 66.5273 57.3416 70.8702C59.72 75.2131 61.1724 80.0018 61.6071 84.9343C61.1443 82.7914 58.3457 79.3628 55.74 80.1771C54.63 80.52 54.2185 82.4357 53.49 83.5457C52.5701 84.9541 51.4348 86.2095 50.1256 87.2657C50.3492 85.1881 50.2451 83.0883 49.8171 81.0428C49.0371 84.2485 47.4728 89.5671 43.5342 88.7057C42.2222 88.5054 40.9928 87.9403 39.9865 87.075C38.9802 86.2095 38.2373 85.0787 37.8428 83.8114C37.3328 80.5543 40.7743 76.7357 35.2413 76.4657C24.1414 75.9214 26.7085 92.2457 33.2614 96.5015C31.7554 96.6681 30.2864 97.0776 28.9114 97.7142C33.0707 100.131 37.7572 101.496 42.5638 101.69C47.3705 101.884 52.1517 100.901 56.4921 98.8262C60.8324 96.752 64.6006 93.649 67.469 89.7874C70.3375 85.9255 72.2195 81.4216 72.9514 76.6671C74.4778 83.6224 73.4972 90.8933 70.1827 97.1957C68.7955 99.8303 67.0184 102.24 64.9114 104.344C63.6256 105.63 61.08 107.044 60.2443 108.377C65.4456 107.689 70.5283 106.294 75.3514 104.229C70.3591 111.031 63.7239 116.457 56.0657 120C64.2889 119.418 72.2379 116.798 79.196 112.377C86.1542 107.956 91.9026 101.873 95.9229 94.6757C94.6416 101.874 91.796 108.703 87.587 114.681C93.2482 110.891 98.0646 105.972 101.734 100.232C105.403 94.4917 107.846 88.0549 108.909 81.3257C109.962 86.252 110.264 91.3092 109.804 96.3257C114.456 89.8646 117.599 82.4421 119.002 74.6051C120.404 66.7682 120.031 58.7163 117.909 51.0428C116.284 45.0781 113.849 39.3649 110.67 34.0629C109.44 31.9968 108.093 30.0022 106.637 28.0886C106.067 27.3472 103.02 24.6343 103.02 23.8029C102.994 23.8857 102.973 23.8857 102.956 23.8029C102.956 37.8 87.9557 46.5643 75.3943 42.9301C80.2568 42.5483 84.8438 40.5192 88.3971 37.1779C91.9504 33.8364 94.2574 29.3828 94.9371 24.5529C95.5104 19.6687 94.3822 14.7362 91.7428 10.5868C89.1033 6.4375 85.1139 3.32507 80.4471 1.77429L80.4427 1.77429Z" fill="url(#paint_linear_1_3285_0)" fill-opacity="1.000000" fill-rule="evenodd"/>
</svg>
