<?xml version="1.0" standalone="no"?>
<!DOCTYPE svg PUBLIC "-//W3C//DTD SVG 20010904//EN"
 "http://www.w3.org/TR/2001/REC-SVG-20010904/DTD/svg10.dtd">
<svg version="1.0" xmlns="http://www.w3.org/2000/svg"
 width="300.000000pt" height="168.000000pt" viewBox="0 0 300.000000 168.000000"
 preserveAspectRatio="xMidYMid meet">

<g transform="translate(0.000000,168.000000) scale(0.100000,-0.100000)"
fill="#000000" stroke="none">
<path d="M0 840 l0 -840 473 0 472 0 58 55 c33 30 61 55 64 55 3 0 2 -19 -2
-42 l-6 -43 28 31 c62 68 76 88 65 92 -18 6 -14 20 5 18 10 0 33 22 56 54 28
39 38 48 34 30 -3 -14 -9 -43 -13 -65 -3 -22 -11 -46 -17 -53 -16 -21 1 -27
23 -7 16 14 21 15 24 4 13 -38 10 -53 -14 -66 -36 -18 -70 -44 -70 -54 0 -13
44 -11 58 3 9 9 12 9 12 0 0 -30 18 -6 38 51 25 69 27 81 12 72 -12 -8 -3 40
12 65 6 10 7 4 4 -20 -4 -27 -1 -23 12 17 17 49 32 77 32 57 0 -5 -16 -63 -35
-128 -19 -66 -33 -122 -30 -124 2 -2 13 29 25 70 50 172 59 195 59 162 1 -17
-6 -53 -14 -80 -19 -63 -19 -74 1 -46 20 29 54 42 77 30 14 -7 19 -4 27 17 5
14 14 25 20 25 14 0 13 -27 -2 -32 -7 -3 -12 -26 -12 -61 -1 -31 -5 -57 -9
-57 -5 0 -5 -5 -2 -10 3 -6 1 -10 -4 -10 -6 0 -11 19 -11 42 0 32 -3 39 -12
30 -8 -8 -8 -21 -2 -44 9 -32 12 -33 67 -36 62 -3 63 -2 58 70 -3 37 18 261
25 267 3 4 17 -7 30 -22 19 -22 24 -40 24 -79 0 -30 8 -71 20 -97 43 -95 65
-135 79 -139 16 -5 16 -4 -25 111 -15 42 -24 80 -20 84 4 4 10 3 14 -2 4 -6
16 -15 27 -21 16 -10 20 -21 18 -65 0 -30 1 -45 3 -34 11 47 27 73 47 79 17 4
19 8 9 18 -21 21 -14 84 13 116 14 17 25 39 25 50 0 11 9 55 20 98 25 100 24
109 -4 55 -26 -51 -42 -41 -27 16 14 48 6 55 -10 9 -14 -40 -29 -47 -29 -16 0
30 27 90 40 90 6 0 28 -14 49 -30 l37 -30 -16 -68 c-10 -37 -20 -82 -23 -100
l-7 -32 30 15 c28 14 30 20 30 70 0 30 11 132 25 227 14 95 25 179 25 188 -1
39 -19 -23 -40 -137 -17 -92 -27 -123 -38 -123 -11 0 -13 8 -9 38 l6 37 -17
-30 -17 -30 -3 27 c-5 41 16 108 32 102 9 -4 17 15 28 63 8 37 13 70 11 73 -7
8 -23 -25 -23 -50 0 -14 -4 -32 -10 -40 -17 -27 -24 0 -14 50 6 28 7 50 2 50
-4 0 -8 -6 -8 -12 0 -27 -22 -88 -29 -83 -5 2 -5 24 0 47 16 82 3 78 -15 -4
-7 -29 -26 -39 -26 -13 0 9 -6 12 -15 9 -11 -4 -15 1 -16 17 0 22 -1 23 -9 4
-7 -19 -8 -19 -15 -2 -6 15 -10 16 -17 5 -6 -8 -7 9 -4 47 7 78 -8 38 -24 -67
-13 -77 -29 -104 -31 -50 0 24 -1 25 -10 7 -7 -15 -8 -8 -4 25 4 32 2 41 -5
30 -5 -8 -10 -25 -10 -37 0 -54 -37 8 -41 67 0 8 -6 -1 -13 -20 l-13 -34 -11
44 c-6 24 -9 47 -6 52 3 4 1 8 -5 8 -5 0 -11 -3 -14 -7 -2 -5 -2 -2 -1 5 2 6
-1 12 -6 12 -6 0 -11 -10 -11 -22 -1 -19 -2 -20 -6 -4 -10 38 14 39 74 5 32
-18 60 -35 63 -38 15 -17 30 -8 30 16 0 22 -2 25 -10 13 -7 -11 -9 -2 -5 30 4
39 3 41 -4 12 -13 -51 -24 -52 -18 -2 l5 45 -14 -40 -14 -40 5 45 c3 30 2 38
-4 25 l-8 -20 -6 20 c-4 11 -4 2 -2 -20 2 -22 2 -34 -1 -27 -3 6 -10 10 -15 7
-4 -3 -14 15 -20 40 -13 50 -28 70 -22 27 4 -26 3 -26 -11 5 -8 17 -24 34 -36
38 -12 4 -19 9 -16 12 2 3 51 -15 108 -40 100 -43 190 -80 311 -128 68 -27 70
-26 86 64 13 76 5 92 -56 103 -46 9 -48 10 -51 47 -2 28 0 37 12 37 19 0 21
-21 4 -38 -6 -6 -9 -15 -5 -18 14 -14 22 8 22 58 0 45 4 53 34 78 19 16 30 33
26 40 -5 8 9 10 47 8 l53 -3 3 -60 c2 -33 -6 -104 -17 -160 -48 -237 -109
-640 -98 -651 3 -3 63 -9 134 -12 118 -5 127 -4 114 11 -20 25 9 33 48 13 16
-9 37 -16 45 -16 21 0 95 -88 117 -138 22 -51 24 -68 4 -32 l-14 25 -10 -25
c-9 -23 -10 -21 -10 17 -1 33 -7 46 -27 62 -34 27 -64 27 -64 1 0 -27 -37 -34
-82 -15 -46 18 -58 19 -58 2 0 -32 -26 -46 -102 -52 -70 -7 -78 -6 -78 10 0
15 -5 13 -25 -9 -23 -25 -31 -27 -80 -24 -39 2 -55 -1 -55 -9 0 -7 6 -13 13
-13 8 0 7 -4 -3 -10 -21 -13 -1 -13 55 1 68 17 225 -13 225 -43 0 -11 -34 -44
-51 -51 -25 -10 9 -24 72 -31 66 -8 71 -26 8 -26 -53 0 -92 22 -119 65 -12 19
-23 35 -25 35 -2 0 -12 -16 -21 -35 -16 -35 -18 -36 -60 -29 -53 8 -190 -25
-158 -37 10 -4 168 -8 351 -8 l332 0 7 55 c3 30 4 69 0 86 -3 17 -3 28 1 25 3
-4 14 -42 22 -85 l16 -77 248 -3 247 -2 0 840 0 840 -106 0 c-67 0 -103 -4
-99 -10 3 -6 2 -10 -4 -10 -5 0 -12 4 -16 10 -3 6 -243 9 -636 10 l-629 0 63
-62 c55 -54 257 -339 257 -363 0 -4 -9 -5 -20 -2 -11 3 -20 2 -20 -2 0 -5 9
-16 20 -26 25 -23 25 -37 0 -53 -16 -10 -28 -9 -67 7 -27 10 -68 22 -93 26
-42 7 -44 7 -30 -10 14 -17 13 -18 -20 -12 -19 3 -44 9 -56 12 -18 6 -22 1
-28 -26 -3 -18 -4 -34 -2 -36 2 -3 51 -18 107 -34 57 -17 107 -35 110 -41 4
-7 8 -6 10 1 3 9 12 9 29 3 14 -6 70 -17 125 -27 90 -15 114 -25 115 -47 0 -4
-7 -5 -15 -2 -11 5 -15 -1 -15 -19 0 -41 -12 -87 -22 -87 -6 0 -9 26 -6 64 5
75 -6 79 -16 6 -10 -73 -30 -65 -23 10 3 35 1 58 -4 54 -5 -3 -9 -17 -9 -32 0
-37 -11 -72 -21 -72 -5 0 -6 28 -3 63 4 45 3 58 -5 47 -6 -8 -11 -32 -11 -52
0 -20 -5 -40 -10 -43 -5 -3 -10 -2 -10 4 0 6 -7 8 -15 5 -12 -5 -15 3 -16 37
-2 34 -3 37 -6 14 -3 -16 -9 -34 -15 -40 -7 -7 -9 8 -5 50 4 38 3 53 -3 40 -5
-11 -9 -35 -9 -52 -1 -40 -20 -44 -22 -5 -2 24 -2 24 -6 4 -7 -37 -27 -20 -34
29 -6 44 -6 44 -7 7 -2 -31 -5 -36 -19 -31 -10 4 -21 10 -24 15 -3 5 -16 10
-27 11 -16 1 -22 8 -23 27 l-1 25 -7 -25 c-7 -23 -8 -21 -15 18 -6 30 -12 42
-24 41 -11 0 -12 -2 -4 -6 6 -2 12 -14 11 -26 0 -19 -3 -17 -16 10 -19 38 -53
42 -53 6 0 -13 -3 -22 -7 -21 -5 1 -23 -6 -40 -15 -28 -15 -33 -23 -33 -52 0
-29 -6 -39 -32 -56 -32 -19 -44 -19 -97 -3 -37 11 -16 -15 26 -33 33 -13 37
-13 86 15 41 23 55 37 64 68 12 37 13 34 10 -44 -3 -70 -1 -85 12 -90 9 -3 18
-8 21 -12 3 -3 28 -21 55 -40 28 -19 71 -51 96 -72 25 -21 50 -38 55 -38 6 0
21 23 34 50 13 28 25 50 26 50 2 0 18 -9 37 -20 l34 -20 -15 -55 c-8 -30 -19
-52 -24 -49 -4 3 -8 -2 -8 -11 0 -8 6 -18 14 -21 11 -4 10 -12 -5 -44 -11 -22
-19 -44 -19 -50 0 -12 -17 -13 -24 -1 -3 5 -1 22 4 37 6 18 6 41 1 59 l-9 30
-18 -42 c-24 -59 -47 -59 -25 0 6 14 6 38 2 54 l-8 28 -12 -30 c-6 -16 -14
-36 -16 -43 -4 -10 -8 -10 -25 0 -27 17 -32 36 -21 76 6 18 6 30 2 27 -5 -2
-12 -19 -16 -37 -5 -23 -9 -27 -12 -15 -2 9 -8 17 -13 17 -5 0 -4 15 1 32 12
45 10 49 -7 13 l-14 -30 5 35 5 35 -15 -30 c-8 -16 -14 -24 -15 -17 0 7 -4 10
-10 7 -5 -3 -7 0 -4 8 2 7 0 27 -6 42 -9 24 -13 27 -21 15 -8 -11 -8 -8 -3 10
3 14 3 22 -1 18 -4 -4 -14 0 -23 8 -14 14 -17 13 -30 -11 -12 -24 -18 -27 -51
-21 -28 4 -38 2 -38 -8 0 -7 8 -11 16 -9 19 5 55 -31 65 -64 5 -15 1 -25 -12
-35 -14 -10 -17 -22 -14 -56 2 -23 8 -42 13 -42 5 0 9 -8 9 -19 0 -10 7 -24
15 -31 9 -7 14 -19 11 -27 -3 -8 -1 -11 4 -8 6 3 10 1 10 -4 0 -27 -52 -1 -62
31 -4 10 -8 10 -22 -1 -9 -8 -15 -20 -12 -28 3 -7 3 -13 0 -13 -2 0 -13 20
-24 45 -23 54 -33 58 -24 10 6 -31 4 -35 -15 -35 -21 0 -21 -2 -7 -21 13 -19
13 -23 -5 -42 -14 -16 -18 -29 -13 -54 3 -18 2 -33 -3 -33 -15 0 -59 51 -82
95 -12 22 -25 47 -30 55 -22 38 -33 91 -21 105 12 15 -3 31 -20 20 -13 -8 -33
-84 -31 -119 1 -15 -4 -35 -11 -44 -8 -10 -9 -13 -1 -9 7 4 10 1 9 -9 -1 -8
-8 -19 -15 -24 -9 -5 -9 -9 -2 -11 6 -3 7 -9 1 -19 -11 -18 -18 -11 -23 21 -2
13 -10 24 -18 24 -8 0 -14 5 -14 12 0 6 -4 15 -9 20 -5 5 -6 3 -2 -5 12 -20
-22 -14 -44 8 -22 22 -27 69 -8 88 9 9 9 12 -2 12 -18 0 -52 -106 -44 -136 3
-13 -4 -28 -20 -43 -29 -27 -31 -25 -16 13 13 36 4 33 -15 -5 -29 -55 -61 -25
-64 59 -2 66 -31 36 -81 -85 -13 -30 -30 -55 -41 -58 -10 -4 -19 -10 -19 -15
0 -5 7 -7 16 -3 11 4 15 2 12 -7 -4 -13 -199 -104 -323 -151 -46 -18 -41 -18
33 -3 26 5 26 5 8 -10 -11 -9 -27 -16 -36 -16 -9 0 -31 -11 -50 -25 -19 -14
-37 -25 -41 -25 -17 0 -20 71 -5 129 31 121 89 194 204 254 66 35 206 72 225
60 6 -3 7 -1 4 4 -9 14 60 42 121 50 33 4 43 3 38 -5 -4 -7 -13 -12 -20 -12
-23 0 -34 -75 -19 -129 l6 -23 13 23 c7 13 13 35 14 48 0 49 23 102 49 116 45
23 74 61 69 90 -3 14 -3 24 -1 21 2 -2 15 7 28 20 13 13 30 24 37 24 7 -1 1
-8 -15 -16 -15 -8 -27 -19 -27 -24 0 -12 7 -12 50 0 40 12 168 -2 200 -22 24
-15 37 -4 19 18 -11 14 -11 18 6 30 26 19 42 18 55 -5 8 -17 14 -18 45 -8 39
12 41 23 5 46 -23 15 -24 15 -17 -2 5 -13 3 -17 -5 -15 -7 3 -14 19 -16 36 -2
23 -12 37 -38 52 -19 12 -31 27 -28 32 4 6 2 8 -3 5 -6 -4 -45 30 -88 74 -64
69 -86 102 -141 213 -35 73 -64 142 -64 154 0 27 74 109 146 163 72 53 203
119 237 119 35 0 75 -20 106 -54 23 -24 23 -26 5 -26 -10 0 -30 -3 -43 -7 -19
-5 -22 -3 -16 8 5 8 4 11 -1 6 -5 -5 -9 -14 -9 -20 -1 -7 -7 -11 -15 -9 -8 2
-12 0 -8 -4 4 -4 -4 -21 -19 -38 -30 -36 -66 -114 -57 -127 12 -21 32 -6 43
32 8 25 33 62 66 96 49 50 56 55 72 42 11 -9 14 -10 9 -1 -4 6 -5 12 -2 12 2
0 15 -17 27 -37 13 -21 40 -56 60 -78 21 -22 41 -56 46 -75 9 -33 12 -35 56
-38 26 -2 47 0 47 3 0 9 -53 87 -123 180 -69 93 -109 125 -231 189 l-89 46
-129 0 c-135 0 -154 -4 -200 -48 -76 -70 -113 -407 -68 -622 31 -150 25 -142
-24 30 -9 30 -19 93 -22 140 -4 47 -12 88 -18 92 -8 5 -7 8 2 8 8 0 12 16 12
48 1 108 43 240 101 313 l31 39 -496 0 -496 0 0 -840z m2325 810 c3 -5 1 -10
-4 -10 -6 0 -11 5 -11 10 0 6 2 10 4 10 3 0 8 -4 11 -10z m-1625 -50 c0 -5 -7
-10 -16 -10 -8 0 -12 5 -9 10 3 6 10 10 16 10 5 0 9 -4 9 -10z m2159 -219 c-3
-6 -10 -7 -18 -2 -7 5 -10 14 -6 21 9 14 29 -2 24 -19z m-843 -18 c-10 -10
-19 5 -10 18 6 11 8 11 12 0 2 -7 1 -15 -2 -18z m-1551 -3 c8 -13 -5 -13 -25
0 -13 8 -13 10 2 10 9 0 20 -4 23 -10z m-360 -80 c3 -5 1 -10 -4 -10 -6 0 -11
5 -11 10 0 6 2 10 4 10 3 0 8 -4 11 -10z m2213 -25 c-9 -9 -30 14 -23 25 6 9
10 8 17 -4 6 -10 8 -19 6 -21z m-1568 11 c0 -11 -19 -15 -25 -6 -3 5 1 10 9
10 9 0 16 -2 16 -4z m-552 -41 c-9 -9 -30 14 -23 25 6 9 10 8 17 -4 6 -10 8
-19 6 -21z m2002 15 c0 -5 -2 -10 -4 -10 -3 0 -8 5 -11 10 -3 6 -1 10 4 10 6
0 11 -4 11 -10z m-1475 -39 c3 -5 1 -12 -5 -16 -5 -3 -10 1 -10 9 0 18 6 21
15 7z m832 -43 c-3 -8 -6 -5 -6 6 -1 11 2 17 5 13 3 -3 4 -12 1 -19z m711 2
c36 0 25 -18 -19 -30 -49 -13 -64 -9 -72 20 -5 21 -3 22 31 16 20 -3 47 -6 60
-6z m-641 -22 c-3 -8 -6 -5 -6 6 -1 11 2 17 5 13 3 -3 4 -12 1 -19z m20 0 c-3
-8 -6 -5 -6 6 -1 11 2 17 5 13 3 -3 4 -12 1 -19z m20 0 c-3 -8 -6 -5 -6 6 -1
11 2 17 5 13 3 -3 4 -12 1 -19z m33 15 c0 -5 -5 -15 -10 -23 -8 -12 -10 -11
-10 8 0 12 5 22 10 22 6 0 10 -3 10 -7z m472 -105 c2 -26 5 -28 36 -22 l33 6
-43 -43 c-24 -24 -41 -45 -40 -46 7 -7 -10 -83 -19 -83 -4 0 -6 -6 -3 -14 7
-17 -13 -125 -33 -185 -8 -25 -19 -80 -24 -121 -15 -138 -19 -150 -46 -156
-13 -4 -27 -4 -30 0 -3 3 21 168 53 366 33 202 62 352 66 343 5 -14 7 -12 7 9
1 14 4 35 8 45 5 14 10 8 20 -27 7 -24 14 -57 15 -72z m-599 90 c-2 -5 -13 -8
-23 -8 -10 0 -21 3 -23 8 -3 4 8 7 23 7 15 0 26 -3 23 -7z m139 -10 c-7 -7
-12 -8 -12 -2 0 14 12 26 19 19 2 -3 -1 -11 -7 -17z m28 1 c0 -11 -4 -18 -10
-14 -5 3 -7 12 -3 20 7 21 13 19 13 -6z m29 14 c0 -5 -4 -17 -9 -28 -8 -18 -9
-17 -9 8 -1 15 4 27 9 27 6 0 10 -3 9 -7z m31 -10 c0 -5 -4 -15 -10 -23 -11
-18 -25 -7 -17 15 6 15 27 21 27 8z m51 -3 c5 0 10 -8 10 -17 1 -17 2 -17 6 0
7 25 25 21 21 -5 -3 -23 -9 -24 -63 -15 -11 2 -20 9 -19 15 3 30 5 34 20 28 9
-3 20 -6 25 -6z m669 -30 c0 -5 -7 -7 -15 -4 -8 4 -12 10 -9 15 6 11 24 2 24
-11z m-120 -5 c0 -9 -6 -12 -15 -9 -8 4 -12 10 -9 15 8 14 24 10 24 -6z
m-1760 -85 c0 -5 -7 -7 -15 -4 -8 4 -12 10 -9 15 6 11 24 2 24 -11z m1698 0
c36 -22 41 -30 13 -23 -12 3 -20 -2 -24 -16 -3 -12 -10 -21 -17 -21 -7 0 -6 8
4 22 22 31 20 38 -11 38 -17 0 -38 -11 -53 -26 -15 -16 -26 -22 -28 -14 -6 17
38 60 62 60 12 0 36 -9 54 -20z m-795 -20 c3 -11 1 -18 -4 -14 -5 3 -9 12 -9
20 0 20 7 17 13 -6z m1141 -29 c-9 -10 -26 18 -18 30 5 9 9 8 14 -7 4 -10 6
-21 4 -23z m-1154 -34 c0 -6 -3 -7 -7 -4 -3 4 -13 1 -22 -6 -14 -10 -14 -10
-4 4 7 9 10 19 6 23 -4 4 0 4 10 0 9 -3 17 -11 17 -17z m-1010 9 c0 -3 -4 -8
-10 -11 -5 -3 -10 -1 -10 4 0 6 5 11 10 11 6 0 10 -2 10 -4z m1725 -16 c-7
-12 36 -12 113 -1 29 4 49 4 45 0 -5 -4 -42 -12 -83 -18 -41 -7 -76 -14 -79
-16 -2 -3 32 -5 77 -5 68 0 83 3 94 19 10 14 19 16 36 10 30 -11 28 -22 -10
-37 -18 -7 -41 -18 -50 -23 -22 -11 -58 -12 -58 0 0 5 -15 11 -32 13 -24 4
-41 -1 -64 -18 -41 -32 -53 -30 -23 2 l24 27 -42 -27 c-40 -24 -43 -25 -43 -7
0 19 71 91 91 91 5 0 7 -4 4 -10z m-728 -47 c-3 -10 -5 -4 -5 12 0 17 2 24 5
18 2 -7 2 -21 0 -30z m-580 -15 c-3 -7 -5 -2 -5 12 0 14 2 19 5 13 2 -7 2 -19
0 -25z m1983 17 c0 -8 -4 -15 -9 -15 -13 0 -22 16 -14 24 11 11 23 6 23 -9z
m-2150 1 c0 -3 -4 -8 -10 -11 -5 -3 -10 -1 -10 4 0 6 5 11 10 11 6 0 10 -2 10
-4z m185 -74 c3 -19 4 -37 1 -40 -3 -3 -6 4 -6 16 0 12 -9 29 -20 39 -19 18
-19 19 0 19 13 0 20 -10 25 -34z m1444 18 c93 -12 143 -30 136 -48 -2 -7 0
-10 5 -7 12 7 13 -15 2 -32 -5 -9 -12 -2 -20 21 -11 30 -18 34 -70 44 -100 19
-137 24 -129 16 4 -4 -7 -14 -25 -22 l-33 -15 25 -7 c14 -5 42 -8 63 -9 44 -1
132 -41 171 -78 44 -40 24 -37 -43 8 -50 34 -74 43 -133 50 -39 5 -73 7 -75 5
-2 -2 23 -11 54 -21 87 -27 158 -80 230 -173 51 -64 67 -117 60 -193 -3 -30 0
-64 5 -73 7 -12 7 -20 0 -25 -5 -3 -12 -15 -15 -26 -2 -11 -5 -2 -5 20 1 161
-23 256 -74 301 -15 13 -19 14 -14 4 8 -16 6 -14 -39 41 -46 55 -75 67 -145
60 -69 -7 -63 -11 37 -26 60 -9 61 -21 2 -17 -27 2 -49 0 -49 -5 0 -4 18 -8
39 -8 35 -1 130 -49 119 -60 -2 -3 -26 2 -53 10 -95 29 -154 27 -155 -6 0 -3
26 -9 58 -11 57 -6 140 -33 130 -44 -4 -3 -28 1 -55 9 -49 15 -98 13 -109 -4
-3 -5 4 -9 16 -9 38 0 104 -41 158 -99 69 -72 80 -94 93 -186 11 -75 11 -77
-12 -101 l-24 -24 -1 23 c-1 12 -3 36 -4 52 -1 17 1 48 5 71 10 54 -5 79 -60
103 -25 11 -45 26 -46 33 -1 7 -2 24 -2 38 -2 32 -39 50 -102 49 l-50 0 35
-20 35 -20 -39 5 c-44 6 -41 4 -50 34 -6 19 -4 22 21 22 25 1 26 2 10 11 -10
6 -27 9 -37 6 -16 -4 -17 -2 -8 19 8 18 14 21 20 12 5 -8 8 2 8 25 0 74 -59
146 -114 140 l-21 -3 21 9 c12 5 41 10 65 12 93 6 80 27 -17 28 -51 1 -51 1
-52 35 -1 37 8 43 82 52 22 2 42 6 44 9 8 7 47 6 131 -5z m-782 -22 c-3 -8 -6
-5 -6 6 -1 11 2 17 5 13 3 -3 4 -12 1 -19z m-267 -20 c0 -4 -15 -8 -32 -8 -24
0 -29 3 -19 9 17 11 51 10 51 -1z m1280 -8 c0 -13 -5 -18 -15 -14 -12 5 -13
10 -4 20 15 19 19 18 19 -6z m-2480 -10 c0 -5 -2 -10 -4 -10 -3 0 -8 5 -11 10
-3 6 -1 10 4 10 6 0 11 -4 11 -10z m459 -16 c-22 -23 -24 -24 -36 -8 -20 28
-16 34 24 34 l36 0 -24 -26z m-55 -19 c3 -8 1 -15 -4 -15 -6 0 -10 7 -10 15 0
8 2 15 4 15 2 0 6 -7 10 -15z m975 -20 c22 -20 38 -43 36 -53 -1 -9 0 -11 2
-4 3 6 9 12 15 12 5 0 8 -7 5 -14 -4 -10 -1 -13 9 -9 8 3 14 -1 14 -11 0 -9 5
-16 10 -16 6 0 10 -7 10 -17 0 -9 3 -13 7 -10 10 11 33 -14 34 -37 0 -20 1
-20 8 -2 10 25 24 5 15 -21 -5 -15 -4 -15 5 -3 16 23 22 6 15 -40 -6 -37 -9
-41 -19 -27 -7 9 -15 14 -18 10 -4 -3 -8 7 -8 23 -1 18 -3 22 -6 11 -4 -16 -7
-15 -29 8 -13 14 -24 38 -25 53 0 24 -1 25 -9 7 -7 -17 -9 -16 -10 10 -1 23
-3 26 -9 12 -6 -17 -8 -16 -27 5 -60 70 -83 106 -77 127 3 11 7 21 9 21 2 0
22 -16 43 -35z m338 -29 c-15 -59 -43 -79 -34 -25 8 53 27 93 37 83 6 -6 4
-28 -3 -58z m-1615 -6 c-6 -16 -11 -20 -16 -11 -4 6 -2 19 5 27 16 20 21 12
11 -16z m338 0 c0 -5 -5 -10 -11 -10 -5 0 -7 5 -4 10 3 6 8 10 11 10 2 0 4 -4
4 -10z m1594 -10 c35 -13 33 -32 -1 -26 -16 2 -36 5 -46 5 -15 1 -16 3 -5 16
16 17 20 18 52 5z m-1782 -50 c-6 -16 -11 -20 -16 -11 -4 6 -2 19 5 27 16 20
21 12 11 -16z m-67 -1 c11 -17 0 -20 -21 -4 -17 13 -17 14 -2 15 9 0 20 -5 23
-11z m1255 -79 c28 -35 47 -66 41 -68 -6 -2 -11 -11 -11 -20 -1 -11 -7 -6 -17
13 -23 44 -53 80 -66 80 -6 0 -12 15 -13 33 -1 18 2 32 6 30 5 -2 32 -32 60
-68z m1130 60 c0 -5 -5 -10 -11 -10 -5 0 -7 5 -4 10 3 6 8 10 11 10 2 0 4 -4
4 -10z m-2121 -44 c9 -10 8 -15 -4 -20 -10 -4 -15 1 -15 14 0 24 4 25 19 6z
m75 -1 c-4 -8 -8 -15 -10 -15 -2 0 -4 7 -4 15 0 8 4 15 10 15 5 0 7 -7 4 -15z
m1136 -132 c0 -14 2 -15 9 -4 12 19 20 1 19 -48 0 -50 -20 -51 -29 0 -4 22 -7
26 -8 12 0 -13 -4 -23 -8 -23 -15 0 -43 35 -44 54 0 12 -3 15 -6 8 -2 -6 -9
-10 -14 -6 -10 6 -12 48 -3 82 6 23 8 22 45 -17 22 -22 39 -48 39 -58z m-1300
83 c0 -11 -19 -15 -25 -6 -3 5 1 10 9 10 9 0 16 -2 16 -4z m1720 -46 c0 -17
-2 -19 -14 -8 -14 13 -12 28 5 28 5 0 9 -9 9 -20z m-2159 -31 c-6 -16 -10 -18
-10 -7 -1 22 12 55 16 42 2 -6 -1 -22 -6 -35z m369 31 c0 -5 -6 -10 -14 -10
-8 0 -18 5 -21 10 -3 6 3 10 14 10 12 0 21 -4 21 -10z m2150 -44 c-1 -6 -10 0
-20 13 -11 13 -20 28 -20 35 1 6 10 0 20 -13 11 -13 20 -28 20 -35z m-2390 40
c0 -11 -19 -15 -25 -6 -3 5 1 10 9 10 9 0 16 -2 16 -4z m170 0 c0 -11 -19 -15
-25 -6 -3 5 1 10 9 10 9 0 16 -2 16 -4z m-330 -96 c0 -5 -4 -10 -10 -10 -5 0
-10 5 -10 10 0 6 5 10 10 10 6 0 10 -4 10 -10z m249 -91 c-21 -30 -23 -31 -36
-13 -7 10 -13 21 -13 25 0 8 24 16 53 18 17 1 16 -2 -4 -30z m-149 -24 c-12
-15 -30 -12 -30 6 0 5 10 9 21 9 18 0 19 -2 9 -15z m1347 0 c0 -8 -4 -15 -9
-15 -4 0 -8 7 -8 15 0 8 4 15 8 15 5 0 9 -7 9 -15z m1110 -47 c-3 -8 -6 -5 -6
6 -1 11 2 17 5 13 3 -3 4 -12 1 -19z m120 -14 c-9 -9 -28 6 -21 18 4 6 10 6
17 -1 6 -6 8 -13 4 -17z m-345 -44 c15 0 28 4 28 10 0 11 32 1 42 -14 4 -6 8
-19 8 -29 0 -14 -6 -16 -27 -11 -45 10 -113 36 -113 44 0 14 14 20 24 10 5 -5
23 -10 38 -10z m507 -29 c-15 -5 -22 6 -14 19 6 9 10 9 16 -1 5 -8 4 -15 -2
-18z m-439 -68 c-11 -17 -11 -17 -6 0 3 10 6 24 7 30 0 9 2 9 5 0 3 -7 0 -20
-6 -30z"/>
<path d="M2221 894 c0 -11 3 -14 6 -6 3 7 2 16 -1 19 -3 4 -6 -2 -5 -13z"/>
<path d="M2170 860 c-9 -6 -10 -10 -3 -10 6 0 15 5 18 10 8 12 4 12 -15 0z"/>
<path d="M1480 1339 c-36 -15 -60 -39 -60 -62 0 -14 5 -17 18 -13 29 11 79 48
91 68 9 15 8 18 -6 17 -10 0 -29 -5 -43 -10z"/>
<path d="M1145 1264 c-42 -15 -85 -55 -85 -79 0 -9 8 -6 24 10 28 28 84 45
149 45 41 0 48 3 45 18 -4 23 -78 27 -133 6z"/>
<path d="M1527 1253 c-10 -10 -8 -43 2 -43 5 0 12 7 15 16 3 8 10 12 16 9 5
-3 10 -1 10 4 0 6 7 11 16 11 10 0 14 -6 10 -15 -3 -10 1 -15 13 -15 15 0 31
18 31 35 0 6 -107 4 -113 -2z"/>
<path d="M1223 1165 c-30 -13 -60 -51 -49 -62 14 -15 116 47 116 71 0 10 -33
6 -67 -9z"/>
<path d="M1957 1122 c13 -8 6 -52 -8 -52 -5 0 -9 -5 -9 -11 0 -6 8 -9 19 -6
10 2 26 0 36 -5 21 -13 35 4 35 45 0 21 -5 27 -22 27 -17 0 -19 -3 -10 -9 16
-10 12 -43 -5 -49 -9 -2 -13 8 -13 32 0 28 -4 36 -17 36 -13 0 -14 -3 -6 -8z"/>
<path d="M1618 1063 c5 -21 7 -23 10 -9 2 10 0 22 -6 28 -6 6 -7 0 -4 -19z"/>
<path d="M1642 1060 c0 -14 2 -19 5 -12 2 6 2 18 0 25 -3 6 -5 1 -5 -13z"/>
<path d="M1662 1050 c0 -14 2 -19 5 -12 2 6 2 18 0 25 -3 6 -5 1 -5 -13z"/>
<path d="M1682 1045 c0 -16 2 -22 5 -12 2 9 2 23 0 30 -3 6 -5 -1 -5 -18z"/>
<path d="M1751 1034 c0 -11 3 -14 6 -6 3 7 2 16 -1 19 -3 4 -6 -2 -5 -13z"/>
<path d="M1598 963 c5 -21 7 -23 10 -9 2 10 0 22 -6 28 -6 6 -7 0 -4 -19z"/>
<path d="M1832 970 c0 -14 2 -19 5 -12 2 6 2 18 0 25 -3 6 -5 1 -5 -13z"/>
<path d="M1702 920 c0 -14 2 -19 5 -12 2 6 2 18 0 25 -3 6 -5 1 -5 -13z"/>
<path d="M1764 895 c-3 -8 -4 -20 -2 -27 3 -7 7 -1 10 15 6 29 1 36 -8 12z"/>
<path d="M1792 875 c0 -16 2 -22 5 -12 2 9 2 23 0 30 -3 6 -5 -1 -5 -18z"/>
<path d="M1586 862 c9 -36 11 -37 16 -8 3 16 0 27 -9 30 -10 4 -12 -1 -7 -22z"/>
<path d="M1824 876 c-3 -8 -4 -25 -2 -38 3 -17 5 -13 9 15 5 38 2 47 -7 23z"/>
<path d="M1631 844 c0 -11 3 -14 6 -6 3 7 2 16 -1 19 -3 4 -6 -2 -5 -13z"/>
<path d="M1646 825 c-3 -9 -6 -24 -5 -33 0 -9 5 -4 10 12 9 32 6 48 -5 21z"/>
<path d="M1547 780 c20 -44 23 -47 23 -28 0 9 -9 26 -20 39 l-20 24 17 -35z"/>
<path d="M1611 694 c0 -11 3 -14 6 -6 3 7 2 16 -1 19 -3 4 -6 -2 -5 -13z"/>
<path d="M1745 660 c3 -5 10 -10 16 -10 5 0 9 5 9 10 0 6 -7 10 -16 10 -8 0
-12 -4 -9 -10z"/>
<path d="M755 481 c-3 -12 -11 -18 -17 -15 -7 4 -8 2 -4 -5 4 -6 2 -19 -5 -27
-6 -8 -9 -17 -6 -20 3 -3 15 13 27 36 12 23 19 44 17 47 -3 2 -8 -5 -12 -16z"/>
<path d="M429 347 c-39 -35 -109 -147 -109 -173 0 -17 34 25 57 70 14 28 43
72 65 99 21 26 38 47 36 47 -2 -1 -24 -20 -49 -43z"/>
<path d="M598 332 c-125 -125 -125 -125 -51 -94 24 9 43 23 43 30 0 6 8 20 19
31 13 13 36 72 27 71 0 0 -18 -17 -38 -38z"/>
<path d="M2033 323 c-27 -10 -11 -24 24 -21 44 4 59 28 16 27 -15 0 -34 -3
-40 -6z"/>
<path d="M405 250 c-25 -50 -27 -69 -7 -56 12 7 44 97 38 104 -3 2 -17 -19
-31 -48z"/>
<path d="M1642 130 c0 -19 2 -27 5 -17 2 9 2 25 0 35 -3 9 -5 1 -5 -18z"/>
<path d="M298 113 c6 -2 18 -2 25 0 6 3 1 5 -13 5 -14 0 -19 -2 -12 -5z"/>
<path d="M1379 83 c-1 -5 0 -12 1 -18 1 -5 -2 -7 -6 -3 -4 4 -13 0 -20 -10
-12 -15 -13 -14 -9 8 3 14 -1 7 -9 -15 -12 -37 -12 -40 6 -43 11 -2 26 5 33
15 7 10 17 14 21 10 5 -4 2 -12 -6 -17 -12 -8 -10 -10 8 -10 25 0 27 10 10 57
-11 30 -26 44 -29 26z"/>
<path d="M1652 45 c0 -17 2 -22 5 -12 2 9 2 23 0 30 -3 6 -5 -1 -5 -18z"/>
<path d="M2475 10 c-3 -5 -1 -10 4 -10 6 0 11 5 11 10 0 6 -2 10 -4 10 -3 0
-8 -4 -11 -10z"/>
</g>
</svg>
