<?xml version="1.0" standalone="no"?>
<!DOCTYPE svg PUBLIC "-//W3C//DTD SVG 20010904//EN"
 "http://www.w3.org/TR/2001/REC-SVG-20010904/DTD/svg10.dtd">
<svg version="1.0" xmlns="http://www.w3.org/2000/svg"
 width="64.000000pt" height="64.000000pt" viewBox="0 0 64.000000 64.000000"
 preserveAspectRatio="xMidYMid meet">

<g transform="translate(0.000000,64.000000) scale(0.100000,-0.100000)"
fill="#17bf93" stroke="none">
<path d="M286 579 c-37 -29 -69 -96 -62 -129 4 -24 1 -30 -25 -40 -16 -7 -34
-21 -39 -31 -6 -10 -24 -19 -43 -21 l-32 -3 -3 -116 c-2 -107 -4 -117 -22
-122 -26 -7 -25 -32 0 -57 19 -19 33 -20 260 -20 227 0 241 1 260 20 25 25 26
50 0 57 -18 5 -20 15 -22 122 l-3 116 -29 3 c-16 2 -42 17 -58 33 -16 16 -36
29 -44 29 -10 0 -12 8 -8 29 7 35 -24 100 -62 130 -15 12 -30 21 -34 21 -4 0
-19 -9 -34 -21z m78 -78 c23 -25 18 -49 -16 -74 l-28 -21 -27 21 c-35 25 -40
49 -17 74 22 24 66 24 88 0z m-77 -121 l26 -20 -59 0 -59 0 30 20 c37 24 32
24 62 0z m123 5 c17 -9 30 -18 30 -20 0 -3 -25 -5 -56 -5 l-56 0 23 20 c29 24
24 23 59 5z m110 -165 l0 -100 -200 0 -200 0 0 100 0 100 200 0 200 0 0 -100z"/>
<path d="M195 260 l-39 -40 42 -42 c33 -33 44 -40 54 -30 9 9 6 18 -17 42
l-29 30 28 29 c25 26 29 51 7 51 -4 0 -25 -18 -46 -40z"/>
<path d="M322 283 c-24 -46 -44 -125 -34 -135 6 -6 15 -7 20 -4 15 9 55 133
47 146 -9 15 -23 12 -33 -7z"/>
<path d="M384 289 c-3 -6 6 -24 22 -40 l28 -29 -29 -30 c-23 -24 -26 -33 -17
-42 10 -10 21 -3 54 30 l42 42 -39 40 c-41 42 -50 46 -61 29z"/>
</g>
</svg>
