<svg width="33.000000" height="32.044083" viewBox="0 0 33 32.0441" fill="none" xmlns="http://www.w3.org/2000/svg" xmlns:xlink="http://www.w3.org/1999/xlink">
	<desc>
			Created with Pixso.
	</desc>
	<defs>
		<linearGradient id="paint_linear_11_4785_0" x1="1.925419" y1="1.684658" x2="12.330048" y2="40.765156" gradientUnits="userSpaceOnUse">
			<stop stop-color="#4E60D3"/>
			<stop offset="0.142763" stop-color="#913BAF"/>
			<stop offset="0.761458" stop-color="#D52D88"/>
			<stop offset="1.000000" stop-color="#F26D4F"/>
		</linearGradient>
		<radialGradient id="paint_radial_11_4785_1" cx="0.000000" cy="0.000000" r="1.000000" gradientUnits="userSpaceOnUse" gradientTransform="translate(9.99053 32.0441) rotate(31.406) scale(30.5699 22.6565)">
			<stop stop-color="#FED276"/>
			<stop offset="0.170240" stop-color="#FDBD61" stop-opacity="0.976471"/>
			<stop offset="0.454081" stop-color="#F6804D"/>
			<stop offset="1.000000" stop-color="#E83D5C" stop-opacity="0.000000"/>
		</radialGradient>
	</defs>
	<path id="Symbol" d="M9.69702 0.0964203C11.457 0.0184479 12.0189 0 16.5 0C20.9811 0 21.543 0.0184479 23.303 0.0964203C25.0592 0.174194 26.2585 0.445068 27.3081 0.841171C28.3932 1.25056 29.3134 1.7984 30.2307 2.68912C31.1479 3.5799 31.7122 4.4734 32.1338 5.52699C32.5416 6.54611 32.8206 7.71082 32.9008 9.41617C32.981 11.1251 33 11.6707 33 16.0221C33 20.3734 32.981 20.919 32.9008 22.6279C32.8206 24.3333 32.5416 25.498 32.1338 26.5171C31.7122 27.5707 31.1479 28.4642 30.2307 29.355C29.3134 30.2457 28.3932 30.7935 27.3081 31.203C26.2585 31.599 25.0592 31.8699 23.303 31.9477C21.543 32.0256 20.9811 32.0441 16.5 32.0441C12.0189 32.0441 11.457 32.0256 9.69702 31.9477C7.9408 31.8699 6.74146 31.599 5.69189 31.203C4.60681 30.7935 3.68665 30.2457 2.76929 29.355C1.85205 28.4642 1.28784 27.5707 0.866211 26.5171C0.458374 25.498 0.179443 24.3333 0.0992432 22.6279C0.019043 20.919 0 20.3734 0 16.0221C0 11.6707 0.019043 11.1251 0.0992432 9.41617C0.179443 7.71082 0.458374 6.54611 0.866211 5.52699C1.28784 4.4734 1.85205 3.5799 2.76929 2.68912C3.68665 1.7984 4.60681 1.25056 5.69189 0.841171C6.74146 0.445068 7.9408 0.174194 9.69702 0.0964203ZM23.1675 2.98027C21.4276 2.9032 20.9056 2.88686 16.5 2.88686C12.0944 2.88686 11.5724 2.9032 9.83264 2.98027C8.22388 3.05151 7.35022 3.31252 6.7688 3.53194C5.99866 3.82259 5.44897 4.16978 4.87158 4.73047C4.29419 5.29111 3.93665 5.82483 3.63733 6.57269C3.41138 7.13727 3.14258 7.98563 3.06921 9.54776C2.98975 11.2372 2.97302 11.744 2.97302 16.0221C2.97302 20.3001 2.98975 20.8069 3.06921 22.4963C3.14258 24.0585 3.41138 24.9068 3.63733 25.4714C3.93665 26.2193 4.29419 26.753 4.87158 27.3136C5.44897 27.8743 5.99866 28.2215 6.7688 28.5121C7.35022 28.7316 8.22388 28.9926 9.83264 29.0638C11.5723 29.1409 12.094 29.1572 16.5 29.1572C20.906 29.1572 21.4279 29.1409 23.1675 29.0638C24.7761 28.9926 25.6498 28.7316 26.2312 28.5121C27.0015 28.2215 27.551 27.8743 28.1284 27.3136C28.7058 26.753 29.0634 26.2193 29.3627 25.4714C29.5886 24.9068 29.8574 24.0585 29.9308 22.4963C30.0103 20.8069 30.027 20.3001 30.027 16.0221C30.027 11.744 30.0103 11.2372 29.9308 9.54776C29.8574 7.98563 29.5886 7.13727 29.3627 6.57269C29.0634 5.82483 28.7058 5.29111 28.1284 4.73047C27.551 4.16978 27.0015 3.82259 26.2312 3.53194C25.6498 3.31252 24.7761 3.05151 23.1675 2.98027ZM25.3077 9.39207C26.4012 9.39207 27.2877 8.53131 27.2877 7.46945C27.2877 6.40759 26.4012 5.54677 25.3077 5.54677C24.2142 5.54677 23.3278 6.40759 23.3278 7.46945C23.3278 8.53131 24.2142 9.39207 25.3077 9.39207ZM8.02698 16.0221C8.02698 11.4781 11.8204 7.79451 16.5 7.79451C21.1796 7.79451 24.973 11.4781 24.973 16.0221C24.973 20.566 21.1796 24.2496 16.5 24.2496C11.8204 24.2496 8.02698 20.566 8.02698 16.0221ZM16.5 21.3627C13.4624 21.3627 11 18.9716 11 16.0221C11 13.0724 13.4624 10.6814 16.5 10.6814C19.5376 10.6814 22 13.0724 22 16.0221C22 18.9716 19.5376 21.3627 16.5 21.3627Z" fill="url(#paint_linear_11_4785_0)" fill-opacity="1.000000" fill-rule="evenodd"/>
	<path id="Symbol" d="M9.69702 0.0964203C11.457 0.0184479 12.0189 0 16.5 0C20.9811 0 21.543 0.0184479 23.303 0.0964203C25.0592 0.174194 26.2585 0.445068 27.3081 0.841171C28.3932 1.25056 29.3134 1.7984 30.2307 2.68912C31.1479 3.5799 31.7122 4.4734 32.1338 5.52699C32.5416 6.54611 32.8206 7.71082 32.9008 9.41617C32.981 11.1251 33 11.6707 33 16.0221C33 20.3734 32.981 20.919 32.9008 22.6279C32.8206 24.3333 32.5416 25.498 32.1338 26.5171C31.7122 27.5707 31.1479 28.4642 30.2307 29.355C29.3134 30.2457 28.3932 30.7935 27.3081 31.203C26.2585 31.599 25.0592 31.8699 23.303 31.9477C21.543 32.0256 20.9811 32.0441 16.5 32.0441C12.0189 32.0441 11.457 32.0256 9.69702 31.9477C7.9408 31.8699 6.74146 31.599 5.69189 31.203C4.60681 30.7935 3.68665 30.2457 2.76929 29.355C1.85205 28.4642 1.28784 27.5707 0.866211 26.5171C0.458374 25.498 0.179443 24.3333 0.0992432 22.6279C0.019043 20.919 0 20.3734 0 16.0221C0 11.6707 0.019043 11.1251 0.0992432 9.41617C0.179443 7.71082 0.458374 6.54611 0.866211 5.52699C1.28784 4.4734 1.85205 3.5799 2.76929 2.68912C3.68665 1.7984 4.60681 1.25056 5.69189 0.841171C6.74146 0.445068 7.9408 0.174194 9.69702 0.0964203ZM23.1675 2.98027C21.4276 2.9032 20.9056 2.88686 16.5 2.88686C12.0944 2.88686 11.5724 2.9032 9.83264 2.98027C8.22388 3.05151 7.35022 3.31252 6.7688 3.53194C5.99866 3.82259 5.44897 4.16978 4.87158 4.73047C4.29419 5.29111 3.93665 5.82483 3.63733 6.57269C3.41138 7.13727 3.14258 7.98563 3.06921 9.54776C2.98975 11.2372 2.97302 11.744 2.97302 16.0221C2.97302 20.3001 2.98975 20.8069 3.06921 22.4963C3.14258 24.0585 3.41138 24.9068 3.63733 25.4714C3.93665 26.2193 4.29419 26.753 4.87158 27.3136C5.44897 27.8743 5.99866 28.2215 6.7688 28.5121C7.35022 28.7316 8.22388 28.9926 9.83264 29.0638C11.5723 29.1409 12.094 29.1572 16.5 29.1572C20.906 29.1572 21.4279 29.1409 23.1675 29.0638C24.7761 28.9926 25.6498 28.7316 26.2312 28.5121C27.0015 28.2215 27.551 27.8743 28.1284 27.3136C28.7058 26.753 29.0634 26.2193 29.3627 25.4714C29.5886 24.9068 29.8574 24.0585 29.9308 22.4963C30.0103 20.8069 30.027 20.3001 30.027 16.0221C30.027 11.744 30.0103 11.2372 29.9308 9.54776C29.8574 7.98563 29.5886 7.13727 29.3627 6.57269C29.0634 5.82483 28.7058 5.29111 28.1284 4.73047C27.551 4.16978 27.0015 3.82259 26.2312 3.53194C25.6498 3.31252 24.7761 3.05151 23.1675 2.98027ZM25.3077 9.39207C26.4012 9.39207 27.2877 8.53131 27.2877 7.46945C27.2877 6.40759 26.4012 5.54677 25.3077 5.54677C24.2142 5.54677 23.3278 6.40759 23.3278 7.46945C23.3278 8.53131 24.2142 9.39207 25.3077 9.39207ZM8.02698 16.0221C8.02698 11.4781 11.8204 7.79451 16.5 7.79451C21.1796 7.79451 24.973 11.4781 24.973 16.0221C24.973 20.566 21.1796 24.2496 16.5 24.2496C11.8204 24.2496 8.02698 20.566 8.02698 16.0221ZM16.5 21.3627C13.4624 21.3627 11 18.9716 11 16.0221C11 13.0724 13.4624 10.6814 16.5 10.6814C19.5376 10.6814 22 13.0724 22 16.0221C22 18.9716 19.5376 21.3627 16.5 21.3627Z" fill="url(#paint_radial_11_4785_1)" fill-opacity="1.000000" fill-rule="evenodd"/>
</svg>
