<svg width="32.976318" height="32.021072" viewBox="0 0 32.9763 32.0211" fill="none" xmlns="http://www.w3.org/2000/svg" xmlns:xlink="http://www.w3.org/1999/xlink">
	<desc>
			Created with Pixso.
	</desc>
	<defs>
		<linearGradient id="paint_linear_11_4788_0" x1="16.488155" y1="0.000000" x2="16.488155" y2="31.783585" gradientUnits="userSpaceOnUse">
			<stop stop-color="#2AABEE"/>
			<stop offset="1.000000" stop-color="#229ED9"/>
		</linearGradient>
	</defs>
	<path id="Oval" d="M32.9763 16.0105C32.9763 24.8529 25.5942 32.0211 16.488 32.0211C7.38208 32.0211 0 24.8529 0 16.0105C0 7.16817 7.38208 0 16.488 0C25.5942 0 32.9763 7.16817 32.9763 16.0105Z" fill="url(#paint_linear_11_4788_0)" fill-opacity="1.000000" fill-rule="evenodd"/>
	<path id="Path-3" d="M7.46362 15.8414C12.2703 13.8079 15.4753 12.4672 17.0791 11.8195C21.658 9.97015 22.6096 9.64891 23.2297 9.63829C23.366 9.63597 23.6711 9.66879 23.8687 9.82445C24.0354 9.95587 24.0813 10.1334 24.1033 10.258C24.1252 10.3826 24.1526 10.6665 24.1309 10.8883C23.8828 13.42 22.8091 19.5636 22.2627 22.3991C22.0317 23.5989 21.5767 24.0012 21.136 24.0405C20.1785 24.1261 19.4514 23.4261 18.5239 22.8358C17.0728 21.9121 16.2529 21.3371 14.8445 20.4357C13.2166 19.394 14.2717 18.8215 15.1995 17.8858C15.4424 17.6409 19.6611 13.9148 19.7427 13.5768C19.7529 13.5345 19.7625 13.3769 19.666 13.2937C19.5696 13.2105 19.4272 13.239 19.3247 13.2616C19.1792 13.2937 16.8608 14.7816 12.3699 17.7253C11.7119 18.1641 11.1157 18.3779 10.5818 18.3667C9.99316 18.3543 8.8606 18.0434 8.0188 17.7777C6.98633 17.4518 6.16553 17.2794 6.23706 16.7259C6.27417 16.4376 6.68311 16.1428 7.46362 15.8414Z" fill="#FFFFFF" fill-opacity="1.000000" fill-rule="evenodd"/>
</svg>
