<svg width="32.000000" height="32.044083" viewBox="0 0 32 32.0441" fill="none" xmlns="http://www.w3.org/2000/svg" xmlns:xlink="http://www.w3.org/1999/xlink">
	<desc>
			Created with Pixso.
	</desc>
	<defs>
		<linearGradient id="paint_linear_11_4786_0" x1="0.000000" y1="16.023800" x2="32.000000" y2="16.023800" gradientUnits="userSpaceOnUse">
			<stop stop-color="#20B038"/>
			<stop offset="1.000000" stop-color="#60D66A"/>
		</linearGradient>
	</defs>
	<path id="Union" d="M0.12854 15.8618C0.12854 18.6817 0.867432 21.4054 2.28113 23.8087L0 32.0441L8.44983 29.833C10.7631 31.1148 13.3976 31.7557 16.0642 31.7557C24.8353 31.7557 32 24.6419 32 15.8939C32 11.632 30.3293 7.65854 27.3413 4.64639C24.3213 1.66629 20.3374 0 16.0642 0C7.29321 0 0.12854 7.11378 0.12854 15.8618ZM5.17273 23.3922L4.85144 22.9115C3.53418 20.7966 2.82727 18.3613 2.82727 15.8939C2.82727 8.58781 8.77112 2.6917 16.0642 2.6917C19.5984 2.6917 22.9398 4.0696 25.4137 6.53699C27.9197 9.03644 29.3011 12.369 29.3011 15.8939C29.3011 23.1679 23.3574 29.096 16.0642 29.096C13.6868 29.096 11.3413 28.4551 9.31726 27.2375L8.83533 26.9491L3.82324 28.2629L5.17273 23.3922ZM12.0851 9.25473C11.787 8.59383 11.4733 8.58058 11.1897 8.569C10.9705 8.55965 10.7212 8.55968 10.4707 8.55971L10.427 8.55971C10.1617 8.55971 9.73059 8.6591 9.36609 9.05626C9.34277 9.08167 9.31665 9.10938 9.28833 9.1395C8.8739 9.58029 7.97314 10.5384 7.97314 12.3661C7.97314 14.305 9.37891 16.1788 9.59351 16.4648L9.5979 16.4707C9.61304 16.4908 9.6416 16.5331 9.68335 16.5948C10.1926 17.3475 12.6573 20.991 16.3954 22.4613C19.4333 23.6561 20.2844 23.5563 20.9587 23.4772C21.0305 23.4688 21.1003 23.4606 21.1705 23.4542C21.9001 23.3881 23.5248 22.4943 23.8564 21.5676C24.188 20.641 24.188 19.8467 24.0885 19.6807C24.0084 19.5475 23.8209 19.4573 23.5432 19.3236C23.476 19.2912 23.4033 19.2563 23.3258 19.2176C22.9279 19.0191 20.9716 18.0589 20.6067 17.9266C20.2419 17.7943 19.9766 17.7281 19.7113 18.1254C19.4459 18.5223 18.6838 19.4161 18.4517 19.6807C18.2195 19.946 17.9873 19.979 17.5894 19.7805C17.524 19.7479 17.4349 19.7093 17.3248 19.6616C16.7642 19.4189 15.6602 18.9409 14.3894 17.8108C13.2065 16.7589 12.4078 15.4598 12.1757 15.0625C11.9435 14.6656 12.1509 14.4506 12.3505 14.2527C12.4697 14.134 12.6071 13.9674 12.7444 13.8007C12.8129 13.7177 12.8812 13.6348 12.9474 13.5577C13.1162 13.3606 13.1895 13.2115 13.2892 13.0086C13.3068 12.9729 13.3251 12.9355 13.345 12.8959C13.4775 12.6309 13.4113 12.3991 13.3118 12.2007C13.2695 12.1165 13.1061 11.7147 12.9048 11.2201C12.6316 10.5488 12.2888 9.70653 12.0851 9.25473Z" fill="url(#paint_linear_11_4786_0)" fill-opacity="1.000000" fill-rule="evenodd"/>
</svg>
